<svg width="8" height="8" viewBox="0 0 8 8" fill="none" xmlns="http://www.w3.org/2000/svg">
<g clip-path="url(#clip0_1454_451)">
<path d="M3.99996 0.666992C3.56222 0.666992 3.12877 0.753211 2.72435 0.920727C2.31993 1.08824 1.95247 1.33377 1.64294 1.6433C1.01782 2.26842 0.666626 3.11627 0.666626 4.00033C0.666626 5.47366 1.62329 6.72366 2.94663 7.16699C3.11329 7.19366 3.16663 7.09033 3.16663 7.00033V6.43699C2.24329 6.63699 2.04663 5.99032 2.04663 5.99032C1.89329 5.60366 1.67663 5.50033 1.67663 5.50033C1.37329 5.29366 1.69996 5.30032 1.69996 5.30032C2.03329 5.32366 2.20996 5.64366 2.20996 5.64366C2.49996 6.15033 2.98996 6.00033 3.17996 5.92033C3.20996 5.70366 3.29663 5.55699 3.38996 5.47366C2.64996 5.39033 1.87329 5.10366 1.87329 3.83366C1.87329 3.46366 1.99996 3.16699 2.21663 2.93033C2.18329 2.84699 2.06663 2.50033 2.24996 2.05033C2.24996 2.05033 2.52996 1.96033 3.16663 2.39033C3.42996 2.31699 3.71663 2.28033 3.99996 2.28033C4.28329 2.28033 4.56996 2.31699 4.83329 2.39033C5.46996 1.96033 5.74996 2.05033 5.74996 2.05033C5.93329 2.50033 5.81663 2.84699 5.78329 2.93033C5.99996 3.16699 6.12663 3.46366 6.12663 3.83366C6.12663 5.10699 5.34663 5.38699 4.60329 5.47032C4.72329 5.57366 4.83329 5.77699 4.83329 6.08699V7.00033C4.83329 7.09033 4.88663 7.19699 5.05663 7.16699C6.37996 6.72032 7.33329 5.47366 7.33329 4.00033C7.33329 3.56259 7.24707 3.12913 7.07956 2.72471C6.91204 2.3203 6.66651 1.95283 6.35698 1.6433C6.04745 1.33377 5.67999 1.08824 5.27557 0.920727C4.87115 0.753211 4.4377 0.666992 3.99996 0.666992Z" fill="#E0E0E0"/>
</g>
<defs>
<clipPath id="clip0_1454_451">
<rect width="8" height="8" fill="white"/>
</clipPath>
</defs>
</svg>
