<svg width="8" height="8" viewBox="0 0 8 8" fill="none" xmlns="http://www.w3.org/2000/svg">
<g clip-path="url(#clip0_1456_487)">
<path d="M3.99996 0.666992C2.15996 0.666992 0.666626 2.16033 0.666626 4.00033C0.666626 5.84033 2.15996 7.33366 3.99996 7.33366C5.83996 7.33366 7.33329 5.84033 7.33329 4.00033C7.33329 2.16033 5.83996 0.666992 3.99996 0.666992ZM5.54663 2.93366C5.49663 3.46033 5.27996 4.74033 5.16996 5.33033C5.12329 5.58033 5.02996 5.66366 4.94329 5.67366C4.74996 5.69033 4.60329 5.54699 4.41663 5.42366C4.12329 5.23033 3.95663 5.11033 3.67329 4.92366C3.34329 4.70699 3.55663 4.58699 3.74663 4.39366C3.79663 4.34366 4.64996 3.56699 4.66663 3.49699C4.66894 3.48639 4.66863 3.47538 4.66573 3.46493C4.66282 3.45447 4.65741 3.44488 4.64996 3.43699C4.62996 3.42033 4.60329 3.42699 4.57996 3.43033C4.54996 3.43699 4.08329 3.74699 3.17329 4.36033C3.03996 4.45033 2.91996 4.49699 2.81329 4.49366C2.69329 4.49033 2.46663 4.42699 2.29663 4.37033C2.08663 4.30366 1.92329 4.26699 1.93663 4.15033C1.94329 4.09033 2.02663 4.03033 2.18329 3.96699C3.15663 3.54366 3.80329 3.26366 4.12663 3.13033C5.05329 2.74366 5.24329 2.67699 5.36996 2.67699C5.39663 2.67699 5.45996 2.68366 5.49996 2.71699C5.53329 2.74366 5.54329 2.78033 5.54663 2.80699C5.54329 2.82699 5.54996 2.88699 5.54663 2.93366Z" fill="#E0E0E0"/>
</g>
<defs>
<clipPath id="clip0_1456_487">
<rect width="8" height="8" fill="white"/>
</clipPath>
</defs>
</svg>
