<svg width="8" height="8" viewBox="0 0 8 8" fill="none" xmlns="http://www.w3.org/2000/svg">
<path d="M3.33329 5.00033L5.06329 4.00033L3.33329 3.00033V5.00033ZM7.18663 2.39033C7.22996 2.54699 7.25996 2.75699 7.27996 3.02366C7.30329 3.29033 7.31329 3.52033 7.31329 3.72033L7.33329 4.00033C7.33329 4.73033 7.27996 5.26699 7.18663 5.61033C7.10329 5.91033 6.90996 6.10366 6.60996 6.18699C6.45329 6.23033 6.16663 6.26033 5.72663 6.28033C5.29329 6.30366 4.89663 6.31366 4.52996 6.31366L3.99996 6.33366C2.60329 6.33366 1.73329 6.28033 1.38996 6.18699C1.08996 6.10366 0.896626 5.91033 0.813293 5.61033C0.769959 5.45366 0.739959 5.24366 0.719959 4.97699C0.696626 4.71033 0.686626 4.48033 0.686626 4.28033L0.666626 4.00033C0.666626 3.27033 0.719959 2.73366 0.813293 2.39033C0.896626 2.09033 1.08996 1.89699 1.38996 1.81366C1.54663 1.77033 1.83329 1.74033 2.27329 1.72033C2.70663 1.69699 3.10329 1.68699 3.46996 1.68699L3.99996 1.66699C5.39663 1.66699 6.26663 1.72033 6.60996 1.81366C6.90996 1.89699 7.10329 2.09033 7.18663 2.39033Z" fill="#E0E0E0"/>
</svg>
